<svg width="115" height="128" viewBox="0 0 115 128" fill="none" xmlns="http://www.w3.org/2000/svg">
<path d="M49.2297 4.62595C49.1104 4.25457 49.1576 4.08647 49.1794 4.03889L49.2619 3.96435L49.3181 3.89732C49.3179 3.89782 49.3179 3.89819 49.3181 3.89842C49.3257 3.90731 49.617 3.71427 50.5222 3.78577C51.4762 3.8611 52.6022 4.22017 53.5085 4.84119C54.3672 5.42958 54.64 6.00166 54.7061 6.39179C54.7465 6.62995 54.7203 6.85271 54.6489 7.04793C53.6587 7.33275 52.1283 7.42505 50.8182 6.52735C49.8985 5.89714 49.4049 5.17173 49.2297 4.62595ZM49.1825 4.03265C49.1856 4.0267 49.1877 4.02398 49.188 4.02411C49.1883 4.02424 49.1868 4.02721 49.1825 4.03265Z" fill="#E76E81" stroke="#711316" stroke-width="4"/>
<path d="M111.625 43.6479C111.675 43.5767 111.718 43.5205 111.756 43.4764C111.863 43.6106 111.997 43.8204 112.133 44.1202C112.497 44.9218 112.733 46.0535 112.667 47.1888C112.604 48.2872 112.274 48.8778 112.026 49.1536C111.99 49.1942 111.954 49.2295 111.919 49.26C111.383 48.6472 110.806 47.5956 110.891 46.135C110.958 44.9811 111.294 44.1216 111.625 43.6479ZM111.883 43.3492C111.891 43.3429 111.898 43.3382 111.904 43.3348C111.914 43.3283 111.92 43.3268 111.92 43.3283C111.92 43.3298 111.915 43.3345 111.903 43.3403C111.898 43.3431 111.891 43.3461 111.883 43.3492ZM111.601 43.3158C111.601 43.3156 111.603 43.3171 111.608 43.3207C111.603 43.3177 111.601 43.3159 111.601 43.3158Z" fill="#E76E81" stroke="#711316" stroke-width="4"/>
<path d="M11.4974 8.2145L12.639 6.15073C13.1821 5.45942 13.9475 4.9749 14.8073 4.78059L15.2672 4.67667L16.501 4.39787L17.6725 6.16263L17.6999 6.20386L17.7292 6.24368L19.0185 7.99169L19.0713 8.06338L19.1304 8.13008L27.7702 17.8918C29.4986 19.8447 32.6363 19.504 33.9067 17.2303L35.9097 14.6439C37.4445 12.6621 39.1516 10.82 41.0111 9.13923L41.3079 8.87094L42.14 8.11889C42.3999 8.6969 42.7213 9.24724 43.0996 9.76009C43.4547 10.2416 43.8572 10.6863 44.301 11.0875L44.539 11.3025C45.0648 11.7779 45.6305 12.2055 46.2292 12.581C45.7975 13.0621 45.3889 13.5639 45.0047 14.0847L44.8609 14.2797C43.8791 15.6108 43.0462 17.0454 42.3768 18.5579L42.0057 19.3966L41.9609 19.4977L41.9276 19.6032L41.3661 21.3794C40.7896 23.2033 40.6695 25.1409 41.0164 27.022C41.1821 27.9208 41.4526 28.797 41.8225 29.6327L42.0047 30.0446C40.3545 31.3486 38.8568 32.8564 37.5687 34.5197L30.65 43.4535L30.64 43.4666L30.6301 43.4798L27.7725 47.298C26.5884 48.8801 25.2812 50.3662 23.863 51.7424L23.5368 52.0589C22.4587 53.1051 21.3064 54.0721 20.0891 54.9524L15.848 58.0191C15.4967 58.2731 15.19 58.5838 14.9404 58.9383C12.6043 62.2564 16.2356 66.5007 19.8753 64.7063L19.9669 64.6611C20.3118 64.4911 20.6299 64.2715 20.9113 64.0094L26.841 58.4841C31.0083 54.8312 34.6515 50.6204 37.6673 45.971L38.1565 45.2169C40.777 41.5091 43.8828 38.1692 47.3909 35.2866L48.924 34.0268C53.0874 31.0213 57.5422 28.4418 62.2214 26.327L63.947 25.5471L68.3754 23.8317C73.8071 21.9459 79.4186 20.6243 85.1211 19.888L85.2882 19.8664L91.506 19.4341C92.3078 19.3783 93.0977 19.6513 93.694 20.1903C93.8406 20.3228 93.9735 20.4697 94.0909 20.6287L95.0528 21.933C95.9405 23.294 96.2016 24.9715 95.768 26.5391L95.6764 26.8704C95.5419 27.3566 95.3506 27.8252 95.1065 28.2666L94.0231 30.2251L92.6224 29.9086L92.5308 29.8879L92.4377 29.8758L87.9253 29.2932L87.7978 29.2767H87.6692H84.5052C81.3443 29.2767 78.1897 29.5596 75.0792 30.1219L72.6653 30.5583C70.6974 30.914 68.7713 31.4711 66.9174 32.2207C64.6595 33.1336 62.5248 34.3256 60.5631 35.7687L59.2765 36.7152C57.1183 38.303 55.1173 40.0942 53.3011 42.0641L52.7399 42.6728L51.3703 43.9108C50.6346 44.5758 50.2147 45.5212 50.2147 46.513C50.2147 47.2623 50.4547 47.9919 50.8995 48.595L51.1908 48.99C52.161 50.3054 53.9183 50.7643 55.4078 50.0912C55.7354 49.9431 56.0379 49.745 56.3046 49.504L59.3225 46.7761L62.7532 43.9571C65.0093 42.1032 67.5191 40.5816 70.2062 39.4386C74.3133 37.6916 78.7527 36.8638 83.2134 37.0131L87.1569 37.1451C91.1412 37.2785 95.0938 37.9032 98.925 39.0051L104.502 40.6089C104.346 40.9249 104.207 41.2492 104.085 41.5803C103.884 42.1251 103.73 42.686 103.625 43.2569L103.44 44.2589C103.337 44.8198 103.255 45.3842 103.195 45.9508L102.531 45.7106L102.398 45.6625L102.259 45.6336L93.8792 43.8856L93.7513 43.8589L93.621 43.8491L88.9529 43.4975C86.7471 43.3314 84.5292 43.4464 82.3525 43.8399L82.2261 43.8628C79.8539 44.2916 77.5555 45.0587 75.4012 46.1405L73.3682 47.1613C72.6908 47.5015 72.0625 47.9315 71.5002 48.4398L69.0742 50.6326C67.9874 51.6149 67.6074 53.1594 68.1142 54.5337C68.5037 55.5899 69.3665 56.4018 70.4443 56.7266L70.6381 56.785C71.8742 57.1574 73.2141 56.9091 74.2347 56.1184L77.2554 53.778C77.6116 53.5021 77.9923 53.2592 78.3926 53.0524L79.1715 52.6501C80.8631 51.7764 82.6889 51.1934 84.5727 50.925L84.8123 51.4123C87.5174 56.9139 89.0593 62.9141 89.3416 69.0384L89.3593 69.4217C89.4732 71.8935 89.36 74.3706 89.021 76.8217C88.1448 83.1582 85.7774 89.1963 82.1136 94.4399L80.2649 97.0856L79.2081 98.4082C74.4279 104.391 69.1716 109.977 63.4906 115.112L61.8845 116.564L55.4812 121.58C53.591 123.061 51.4048 124.118 49.0705 124.681L47.0501 125.168C45.0471 125.65 42.9445 125.51 41.0232 124.766C40.4795 124.555 39.955 124.298 39.4556 123.997L38.2822 123.29C35.9877 121.908 33.9213 120.178 32.1563 118.163L22.8325 107.517L12.6232 93.6751L8.35453 86.6015C6.19458 83.0222 4.59784 79.132 3.62027 75.0674L3.24411 73.5034C2.4356 70.1416 2.1919 66.6689 2.523 63.2272C2.99074 58.3652 4.59426 53.6811 7.20431 49.5525L8.08873 48.1535L13.7838 40.718L17.7946 36.3158C21.3423 32.4219 22.6427 26.9794 21.2384 21.9024C20.7692 20.2057 20.0112 18.6025 18.9979 17.1631L17.2652 14.702C16.2386 13.2439 15.0944 11.8723 13.8441 10.6008L11.4974 8.2145Z" fill="#E76E81" stroke="#711316" stroke-width="4"/>
<path d="M54.1485 56.3315V56.3315C53.2916 60.2045 52.8593 64.1593 52.8593 68.1259V70.8983M52.8593 70.8983L54.7932 76.1423L59.3056 84.8824L63.1733 92.4571M52.8593 70.8983L56.6875 74.3585C57.9952 75.5405 59.4787 76.5119 61.085 77.2379V77.2379C62.893 78.055 64.8301 78.5493 66.8085 78.6983L71.5535 79.0557M52.8593 70.8983L48.3469 77.8903L46.0907 80.8037M29.6528 94.7878L37.3883 88.9611L40.6114 86.3391M40.6114 86.3391L40.9761 86.0424C42.8755 84.4973 44.5915 82.7396 46.0907 80.8037V80.8037M40.6114 86.3391L38.0192 84.7282C36.314 83.6686 34.5026 82.7903 32.6145 82.1076V82.1076C30.2208 81.2422 27.7229 80.6981 25.1861 80.4896L21.9172 80.221M46.0907 80.8037L46.413 86.3391V94.2051M46.413 94.2051L46.0907 100.032L45.7579 101.837C45.3395 104.106 44.4659 106.267 43.1899 108.189V108.189M46.413 94.2051L49.0628 95.0035C49.8727 95.2475 50.6555 95.5737 51.399 95.9769V95.9769C52.7894 96.731 54.0229 97.744 55.033 98.9613L55.4378 99.4492" stroke="#FA899B" stroke-width="4" stroke-linecap="round"/>
</svg>
