<svg width="800" height="550" viewBox="0 0 800 550" fill="none" xmlns="http://www.w3.org/2000/svg">
<path d="M400 0.0132446C620.901 0.0132446 800 123.138 800 275.011C800 426.885 620.901 549.987 400 549.987C179.099 549.987 0 426.91 0 275.037C0 123.164 179.099 0.0132446 400 0.0132446Z" fill="white"/>
<path d="M400 75.0115C510.449 75.0115 600 164.563 600 275.011C600 385.46 510.449 474.986 400 474.986C289.551 474.986 200 385.46 200 275.011C200 164.563 289.548 75.0115 400 75.0115Z" fill="#3DB39E"/>
<path d="M400 150.013C469.05 150.013 524.999 205.987 524.999 275.012C524.999 344.062 469.05 399.988 400 399.988C330.95 399.988 275.001 344.062 275.001 275.012C274.998 205.987 330.95 150.013 400 150.013Z" fill="#324D5B"/>
<path d="M474.998 150.013C502.598 150.013 524.999 172.413 524.999 200.013C524.999 227.613 502.598 249.988 474.998 249.988C447.398 249.988 424.998 227.613 424.998 200.013C424.998 172.413 447.398 150.013 474.998 150.013Z" fill="#C9EAE4"/>
<path d="M515.923 228.662C503.198 196.962 478.024 171.813 446.398 159.112C433.474 168.162 424.998 183.086 424.998 200.036C424.998 227.636 447.398 250.011 474.998 250.011C491.948 250.011 506.824 241.538 515.923 228.662Z" fill="#D6DBDE"/>
</svg>
