<svg width="143" height="125" viewBox="0 0 143 125" fill="none" xmlns="http://www.w3.org/2000/svg">
<path d="M3 69L10.5 65L13.231 63.8621C15.4031 62.957 17.6721 62.3047 19.9932 61.9178L20.8342 61.7776C21.9428 61.5929 23.0648 61.5 24.1888 61.5H26.6337C27.2075 61.5 27.7775 61.5925 28.3218 61.7739V61.7739C28.7719 61.924 29.2 62.1334 29.5948 62.3965L30.046 62.6973C30.3479 62.8986 30.6292 63.1292 30.8859 63.3859V63.3859C31.9194 64.4194 32.5 65.8211 32.5 67.2827V67.5607C32.5 67.8532 32.4792 68.1453 32.4379 68.4349L32.2756 69.5707C32.0922 70.8545 32.021 72.1518 32.0628 73.4479L32.1658 76.6406C32.3869 83.4943 33.8027 90.2567 36.3494 96.6234L39.5 104.5L41 107.5L41.6035 108.586C42.865 110.857 44.337 113.004 46 115V115L47.2208 116.221C47.7396 116.74 48.2946 117.221 48.8815 117.661L49.7528 118.315C49.9173 118.438 50.0925 118.546 50.2764 118.638L50.4122 118.706C50.7988 118.899 51.225 119 51.6572 119V119C52.2067 119 52.744 118.837 53.2013 118.532L53.6303 118.246C53.8762 118.083 54.1052 117.895 54.3142 117.686L54.4881 117.512C55.1558 116.844 55.6808 116.048 56.0315 115.171L56.5 114L57.5 111V111C58.498 108.006 59.2245 104.928 59.6708 101.804L60 99.5L61 93L62.5 85.5L63.2286 82.5854C63.4093 81.863 63.6474 81.1561 63.9407 80.4716L64.3896 79.4242C64.7928 78.4834 65.3719 77.6281 66.0957 76.9043V76.9043C66.3649 76.6351 66.6529 76.3854 66.9574 76.1569L67.623 75.6578C68.2051 75.2212 68.8422 74.8631 69.5179 74.5928L69.8672 74.4531C70.6155 74.1538 71.4141 74 72.2201 74H72.5021C72.8328 74 73.1622 74.0406 73.483 74.1208V74.1208C74.4591 74.3648 75.3092 74.9639 75.8674 75.801L76 76L77.093 77.8216C77.3639 78.2731 77.5983 78.7456 77.7938 79.2345V79.2345C78.2603 80.4008 78.5 81.6454 78.5 82.9014V86.5V92.5L79 98.5L79.5 108L80.1324 111.794C80.3761 113.257 80.8371 114.674 81.5 116V116L81.9193 117.048C82.3043 118.011 82.8291 118.911 83.4767 119.721L83.8954 120.244C84.2961 120.745 84.7716 121.181 85.3053 121.537L85.6229 121.749C85.8732 121.915 86.1446 122.048 86.4299 122.143L86.4911 122.164C87.146 122.382 87.854 122.382 88.5089 122.164V122.164C88.8342 122.055 89.1399 121.895 89.4142 121.689L89.9062 121.32C90.6285 120.779 91.2389 120.102 91.7035 119.328L92.5 118L94 114.5L96 110L98 105L100 99L101.5 94L103 88.5L104.5 81.5L104.922 78.5435C104.974 78.1816 105 77.8165 105 77.451V77.2808C105 76.7622 104.936 76.2456 104.811 75.7425V75.7425C104.606 74.9225 104.239 74.1516 103.732 73.4754L103.39 73.0206C103.13 72.674 102.846 72.3462 102.54 72.0398L101 70.5L100.268 69.7678C99.0907 68.5907 97.8317 67.4987 96.5 66.5V66.5C95.1683 65.5013 93.9093 64.4093 92.7322 63.2322L92 62.5L89.5 60L87 57L85.9254 55.6568C85.3102 54.8878 84.7779 54.0559 84.3375 53.175V53.175C83.7816 52.0633 83.3765 50.8825 83.1327 49.6637L83 49L82.5 46.5L81.5 39.5L81.1087 36.37C81.0368 35.7942 80.8674 35.2348 80.6079 34.7158V34.7158C80.2095 33.9191 79.6102 33.2401 78.869 32.746L78.5 32.5L77 31.5V31.5C76.0219 30.8479 74.8727 30.5 73.6972 30.5H73.5H71H60.0616C58.6924 30.5 57.3283 30.3321 56 30V30V30C54.6707 29.6677 53.3817 29.1908 52.1561 28.578L52 28.5L49.5744 26.8829C49.1924 26.6283 48.8365 26.3365 48.5119 26.0119V26.0119C47.8442 25.3442 47.048 24.8192 46.1714 24.4685L45 24L44.3158 23.829C43.4494 23.6124 42.5457 23.5909 41.67 23.766L41.1465 23.8707C40.7196 23.9561 40.3136 24.1242 39.9514 24.3657V24.3657C39.3348 24.7768 38.8728 25.3817 38.6384 26.0848L38.5 26.5L38 28.5L37.772 29.6402C37.5911 30.5445 37.5 31.4645 37.5 32.3867V32.3867C37.5 33.1277 37.5588 33.8676 37.6759 34.5993L39.0004 42.8774C39.3329 44.9557 39.8344 47.0033 40.5 49V49L40.7094 49.6283C41.2331 51.1992 41.5 52.8442 41.5 54.5V54.5V55.7082C41.5 56.2245 41.3472 56.7292 41.0608 57.1588V57.1588C40.6999 57.7001 40.1503 58.0874 39.5192 58.2452L39.2854 58.3036C38.7697 58.4326 38.2303 58.4326 37.7146 58.3036L37.2463 58.1866C36.7515 58.0629 36.2777 57.8666 35.8404 57.6042L34 56.5L31.5 54.5L29.5613 52.5613C28.5222 51.5222 27.5708 50.3991 26.7167 49.2033L26.5118 48.9166C25.8383 47.9736 25.2397 46.9794 24.7215 45.943V45.943C23.9102 44.3204 23.301 42.6046 22.9075 40.8337L22.5 39L22 37L21.5 33V28V26.1796C21.5 24.732 21.6775 23.2899 22.0286 21.8855L22.1046 21.5817C22.3674 20.5304 22.7445 19.511 23.2291 18.5418V18.5418C23.7413 17.5174 24.3703 16.5556 25.1035 15.6758L26.5 14L28.2597 11.9471C29.0851 10.984 29.9898 10.0919 30.9641 9.27988V9.27988C31.9861 8.42827 33.0808 7.66809 34.2358 7.0081L36 6L38.7013 4.64935C39.5652 4.21738 40.4674 3.86646 41.3961 3.60111V3.60111C42.7919 3.20232 44.2364 3 45.6881 3H46.5V3C48.8263 3 51.1457 3.2546 53.4167 3.75926L54.5 4L58.5 5.5L62.5 7L66.2349 8.49396C67.0758 8.83034 67.9506 9.0751 68.844 9.224V9.224C69.9432 9.40719 71.0617 9.44383 72.1705 9.33295L73.0773 9.24227C74.6862 9.08138 76.2687 8.72049 77.7882 8.16793L81 7L84.271 5.36448C85.4215 4.78923 86.6195 4.31416 87.8515 3.94455V3.94455C89.9393 3.3182 92.1074 3 94.2871 3H96L98.5701 3.23365C100.517 3.41062 102.437 3.81219 104.291 4.43033V4.43033C105.429 4.80963 106.538 5.26922 107.611 5.80563L108.925 6.46268C110.303 7.15163 111.591 8.00696 112.761 9.00951V9.00951C113.916 9.99953 114.947 11.1258 115.831 12.3637L115.863 12.4086C116.619 13.4668 117.274 14.6156 117.802 15.804V15.804C118.589 17.5749 119.122 19.4772 119.363 21.4002L119.5 22.5V28L119 33.5L117.5 40L115.5 45.5L113 50.5L110.902 55.1156C110.634 55.7044 110.411 56.3122 110.233 56.9341V56.9341C109.749 58.6273 109.613 60.4007 109.831 62.148L110 63.5L110.309 65.6607C110.435 66.5478 110.704 67.4086 111.105 68.21V68.21C111.368 68.7352 111.685 69.2312 112.052 69.6897L112.094 69.7428C113.017 70.8964 114.21 71.8045 115.568 72.3865L117 73L117.262 73.1308C118.417 73.7085 119.632 74.1581 120.885 74.4714V74.4714C122.29 74.8225 123.732 75 125.18 75H125.771C127.253 75 128.732 74.8536 130.186 74.5629L130.437 74.5126C132.141 74.1718 133.805 73.655 135.402 72.9705L136.5 72.5L139 71L140 70.5" stroke="#C4B378" stroke-width="4.5" stroke-linecap="round"/>
</svg>
