<svg width="1184" height="266" viewBox="0 0 1184 266" fill="none" xmlns="http://www.w3.org/2000/svg">
<path d="M0 8C0 3.58172 3.58172 0 8 0H292V266H8C3.58173 266 0 262.418 0 258V8Z" fill="#081004"/>
<path d="M35.5 24V24C110.058 24 170.5 84.4416 170.5 159V242H35.5V24Z" fill="#6EC841"/>
<path d="M170.5 170L256.5 242H170.5V170Z" fill="#71D68A"/>
<path d="M292 0H367V69H292V0Z" fill="#DD4560"/>
<path d="M1110 138V138C1150.87 138 1184 171.131 1184 212V259.263C1184 262.984 1180.98 266 1177.26 266H1110V138Z" fill="#081004"/>
<path d="M738 0H812V69H738V0Z" fill="#6EC841"/>
<path d="M812 69H887V138H812V69Z" fill="#6EC841"/>
<path d="M812 0H887V69H812V0Z" fill="#6EC841"/>
<path d="M812 0H818C856.108 0 887 30.8924 887 69V69H812V0Z" fill="#081004"/>
<path d="M742.425 137.642C779.197 134.668 808.53 105.729 812 69V69V138H738L742.425 137.642Z" fill="#6EC841"/>
<path d="M738 138H887V266H738V138Z" fill="#71D68A"/>
<path d="M663 138H738V258C738 262.418 734.418 266 730 266H663V138Z" fill="#DD4560"/>
<path d="M664 0V69H589L664 0Z" fill="#6EC841"/>
<path d="M664 138V69H738L664 138Z" fill="#6EC841"/>
<path d="M589 202H507V138H525C560.346 138 589 166.654 589 202V202Z" fill="#6EC841"/>
<path d="M507 202H589V266H571C535.654 266 507 237.346 507 202V202Z" fill="#71D68A"/>
<path d="M812.5 202V266H738V266C738 230.654 766.654 202 802 202H812.5Z" fill="#6EC841"/>
<path d="M812.5 266V202H887V202C887 237.346 858.346 266 823 266H812.5Z" fill="#081004"/>
<path d="M367 0H441V138H367V0Z" fill="#081004"/>
<path d="M292 138H441V258C441 262.418 437.418 266 433 266H292V138Z" fill="#71D68A"/>
<path d="M292 266L441 138V258C441 262.418 437.418 266 433 266H292Z" fill="#6EC841"/>
<path fill-rule="evenodd" clip-rule="evenodd" d="M589 0H441V138H589V0ZM515.5 98.1094C530.688 98.1094 543 84.8353 543 68.4609C543 52.0866 530.688 38.8125 515.5 38.8125C500.312 38.8125 488 52.0866 488 68.4609C488 84.8353 500.312 98.1094 515.5 98.1094Z" fill="#71D68A"/>
<path fill-rule="evenodd" clip-rule="evenodd" d="M738.117 138H589V266H730.117C734.535 266 738.117 262.418 738.117 258V138ZM664.062 229C679.365 229 691.77 216.688 691.77 201.5C691.77 186.312 679.365 174 664.062 174C648.76 174 636.355 186.312 636.355 201.5C636.355 216.688 648.76 229 664.062 229Z" fill="#71D68A"/>
<path fill-rule="evenodd" clip-rule="evenodd" d="M738.117 138H662.799V174.04C663.298 174.014 663.8 174 664.305 174C679.558 174 691.922 186.312 691.922 201.5C691.922 216.688 679.558 229 664.305 229C663.8 229 663.298 228.986 662.799 228.96V266H738.117V138Z" fill="#081004"/>
<path d="M589 0L441 138L441 0L589 0Z" fill="#081004"/>
<path d="M1035 0L1176 0C1180.42 0 1184 3.58172 1184 8V138L1035 138V0Z" fill="#DD4560"/>
<path d="M1035 0L1184 138L1035 138V0Z" fill="#081004"/>
<ellipse cx="924" cy="68.5" rx="37" ry="34.5" fill="#6EC841"/>
<ellipse cx="924" cy="68.5" rx="37" ry="34.5" fill="#6EC841"/>
<ellipse cx="1035.5" cy="69" rx="74.5" ry="69" fill="#71D68A"/>
<path d="M1110 266C1090.37 266 1071.55 259.257 1057.67 247.255C1043.8 235.253 1036 218.974 1036 202C1036 185.026 1043.8 168.747 1057.67 156.745C1071.55 144.743 1090.37 138 1110 138L1110 202L1110 266Z" fill="#6EC841"/>
<path fill-rule="evenodd" clip-rule="evenodd" d="M1035 138H887V266H961H1035V138ZM961 266C939.82 266 922.65 251.673 922.65 234C922.65 216.327 939.82 202 961 202C982.18 202 999.35 216.327 999.35 234C999.35 251.673 982.18 266 961 266Z" fill="#71D68A"/>
<path d="M887 202C887 166.654 915.654 138 951 138H971C1006.35 138 1035 166.654 1035 202V202H887V202Z" fill="#081004"/>
</svg>
