<svg width="244" height="244" viewBox="0 0 244 244" fill="none" xmlns="http://www.w3.org/2000/svg">
<circle cx="122" cy="122" r="122" fill="#081004"/>
<path d="M244 122C244 97.2705 236.485 73.1249 222.45 52.7635C208.416 32.4021 188.525 16.7864 165.415 7.98616C142.304 -0.814055 117.065 -2.38324 93.0419 3.48658C69.0192 9.35641 47.3474 22.3881 30.8991 40.8543C14.4508 59.3205 4.00265 82.3494 0.939519 106.888C-2.12361 131.427 2.3429 156.318 13.7471 178.261C25.1512 200.204 42.9545 218.163 64.7972 229.758C86.6399 241.353 111.491 246.037 136.055 243.188L122 122H244Z" fill="#18672C"/>
<path d="M243.091 107.132C240.228 83.8142 230.693 61.8185 215.632 43.788C200.57 25.7575 180.624 12.4591 158.188 5.49049C135.751 -1.47808 111.78 -1.82043 89.1545 4.50457C66.5286 10.8296 46.2101 23.5529 30.6401 41.146C15.0702 58.739 4.91106 80.4534 1.38328 103.68C-2.1445 126.907 1.10914 150.659 10.7533 172.082C20.3974 193.504 36.0219 211.687 55.7495 224.444C75.4771 237.202 98.4687 243.993 121.962 244L122 122L243.091 107.132Z" fill="#71D68A"/>
<path d="M71.2358 174L88.6222 69.2727H117.054L110.099 111.614H111.531L149.986 69.2727H183.122L140.168 115.909L166.554 174H132.599L115.827 134.727L104.168 147.205L99.6676 174H71.2358Z" fill="white"/>
</svg>
