<svg width="698" height="1024" viewBox="0 0 698 1024" fill="none" xmlns="http://www.w3.org/2000/svg">
<path d="M0 205.84C0 131.922 59.9221 72 133.84 72H360C558.823 72 720 233.177 720 432V807.966C720 939.572 615.63 1047.47 484.096 1051.83L343.5 1056.5V1056.5C176.239 1050.41 65.6173 880.306 127.892 724.951L135.828 705.152C174.032 609.845 150.776 500.896 76.9867 429.495V429.495C27.7813 381.882 0 316.342 0 247.872V205.84V205.84Z" fill="#6EC841"/>
<path d="M114.229 -22.4522C119.943 -109.546 194.047 -176.206 281.258 -172.703L473 -165V-165C675.871 -172.645 844.5 -10.2512 844.5 192.764V566.133C844.5 691.428 742.928 793 617.633 793H422.768C240.86 793 131.498 591.203 230.812 438.798V438.798C285.87 354.306 279.207 243.748 214.401 166.479L151.507 91.489C124.869 59.7279 111.515 18.912 114.229 -22.4522V-22.4522Z" fill="#71D68A"/>
<path d="M241 302.034C241 243.674 287.141 195.757 345.46 193.555L545.5 186L610.96 187.812C805.829 193.205 961 352.731 961 547.674V925.5C961 1060.26 851.757 1169.5 717 1169.5H561.5V1169.5C408.041 1169.5 303.152 1014.45 360.249 872.011L390.582 796.34C421.767 718.543 415.34 630.713 373.161 558.284L255.748 356.664C246.089 340.078 241 321.228 241 302.034V302.034Z" fill="#8CDE96"/>
<path d="M360 -21.5954C360 -79.2411 409.547 -124.415 466.948 -119.103L670.505 -100.267C686.805 -98.7584 703.204 -98.6606 719.52 -99.9744L723.465 -100.292C915.567 -115.76 1080 35.9655 1080 228.689V574.727C1080 718.599 956.156 831.237 812.929 817.634L731.09 809.861C718.061 808.623 704.942 808.653 691.919 809.95V809.95C540.795 824.998 427.602 674.355 484.109 533.388L513.529 459.993C542.224 388.41 536.31 307.595 497.5 240.952L373.303 27.6839C364.59 12.7223 360 -4.2818 360 -21.5954V-21.5954Z" fill="#DCFFC3"/>
</svg>
