<svg width="673" height="1024" viewBox="0 0 673 1024" fill="none" xmlns="http://www.w3.org/2000/svg">
<path d="M94.3013 503.166C58.5063 433.46 51.1755 352.578 73.8542 277.572V277.572C113.459 146.587 236.111 58.539 372.883 62.9091L396.958 63.6783C577.014 69.4314 720 217.059 720 397.207V849.498C720 986.742 608.742 1098 471.498 1098H307.623C177.195 1098 100.154 951.824 173.874 844.228V844.228C207.528 795.109 211.551 731.494 184.351 678.526L94.3013 503.166Z" fill="#6EC841"/>
<path d="M222.994 372.138C164.053 302.191 144.468 207.188 170.941 119.633V119.633C206.366 2.47303 316.072 -76.2818 438.409 -72.3729L486.958 -70.8217C667.014 -65.0686 810 82.5591 810 262.707V712.879C810 851.293 697.793 963.5 559.379 963.5H448.419C295.401 963.5 204.266 792.817 289.391 665.662V665.662C336.832 594.798 331.66 501.094 276.707 435.881L222.994 372.138Z" fill="#71D68A"/>
<path d="M425.994 661.138C367.053 591.191 347.468 496.188 373.941 408.633V408.633C409.366 291.473 519.072 212.718 641.409 216.627L689.958 218.178C870.014 223.931 1013 371.559 1013 551.707V1001.88C1013 1140.29 900.793 1252.5 762.379 1252.5H651.419C498.401 1252.5 407.266 1081.82 492.391 954.662V954.662C539.832 883.798 534.66 790.094 479.707 724.881L425.994 661.138Z" fill="#8CDE96"/>
<path d="M364.147 237.071C282.058 196.723 225.931 117.609 214.97 26.7991V26.7991C200.302 -94.7176 269.09 -210.934 382.675 -256.538L427.751 -274.637C594.928 -341.758 785.201 -264.073 857.628 -99.125L1038.61 313.062C1094.26 439.798 1036.63 587.648 909.899 643.296L808.301 687.906C668.195 749.425 516.128 629.783 542.949 479.135V479.135C557.897 395.176 515.489 311.458 438.955 273.841L364.147 237.071Z" fill="#DCFFC3"/>
</svg>
